<?xml version="1.0" encoding="UTF-8" standalone="no"?>
<!DOCTYPE svg PUBLIC "-//W3C//DTD SVG 1.1//EN" "http://www.w3.org/Graphics/SVG/1.1/DTD/svg11.dtd">
<svg width="100%" height="100%" viewBox="0 0 64 64" version="1.1" xmlns="http://www.w3.org/2000/svg" xmlns:xlink="http://www.w3.org/1999/xlink" xml:space="preserve" xmlns:serif="http://www.serif.com/" style="fill-rule:evenodd;clip-rule:evenodd;stroke-linejoin:round;stroke-miterlimit:2;" fill='#ecd3d1'>
    <path d="M54.5,32.606C53.65,32.606 53.057,32.848 53,32C52.977,31.659 47.335,17.631 46.793,17.07C46.219,16.476 32.829,10.271 32,10.305C30.983,10.347 16.644,16.918 15.983,17.53C15.353,18.113 11.003,31.996 11,32C10.55,32.721 10.35,32.478 9.5,32.478C8.65,32.478 8.283,32.802 8,32C7.971,31.917 13.077,16.23 13.58,15.677C14.238,14.955 31.023,7.024 32,6.983C32.906,6.944 48.7,14.725 49.26,15.215C49.729,15.625 55.992,31.654 56,32C56.02,32.85 55.35,32.606 54.5,32.606ZM52.74,41L11.546,41C10.696,41 8.65,38 9.5,38L54.5,38C55.35,38 53.59,41 52.74,41ZM42.44,48.5L21.533,48.52C20.683,48.52 18.65,45.5 19.5,45.5L44.5,45.5C45.35,45.5 43.29,48.5 42.44,48.5ZM32.983,55.915L31.07,55.93C30.22,55.93 28.65,53 29.5,53L34.5,53C35.35,53 33.833,55.915 32.983,55.915Z"/>
</svg>
